<svg id="icons" xmlns="http://www.w3.org/2000/svg" xmlns:xlink="http://www.w3.org/1999/xlink">

    <symbol id="logo" viewBox="0 0 836.9 677.48" >
        <path d="M458.54,312.07q4.59-1.8,4.2,1.4-.6,4.8-7,11.4a11.85,11.85,0,0,1-3.8,2.8,179.14,179.14,0,0,1-39.6,12,210.05,210.05,0,0,1-40.9,3.5,272.8,272.8,0,0,1-41.4-3.9,323.86,323.86,0,0,1-40.9-9.6,402.49,402.49,0,0,1-39.4-14.4q-29.81,21.8-63.6,2.6a81.12,81.12,0,0,1-11.7-8.6,73.64,73.64,0,0,1-10.6-11.6,37.49,37.49,0,0,1-6.6-13.7,29.6,29.6,0,0,1,.3-14.7,19.26,19.26,0,0,1,9.3-13.1,19.74,19.74,0,0,1,16.1-2.1,36.2,36.2,0,0,1,10.1,5q5.7,3.81,12,8.6a92.35,92.35,0,0,0,9.5,6.6,425,425,0,0,0,39.6,20.4,1.1,1.1,0,0,0,.5.3,1.52,1.52,0,0,0,.5.1,101.46,101.46,0,0,0,8.2-11.2q10.2-16.59,19.7-35.9t16.6-36.2q7.1-16.89,14.7-40.2t12.2-38.7q4.59-15.39,11.2-41.4t9.6-38.9q3-12.9,9.2-39.9,1-4.39,8.9-9.6t8.3-1.6a6,6,0,0,1-.2,1.4q-13.6,58.41-33.8,123.8-1.2,4-6.4,21.6t-8.8,29.4q-3.6,11.81-10.6,31.3t-13.5,33.9q-6.51,14.4-15.6,30.2a178.31,178.31,0,0,1-18.5,26.8,383.75,383.75,0,0,0,53,17.4Q400.34,337.07,458.54,312.07Zm-262.2-13.2q23.19,16.2,40,10.4-13-6-24.4-12.2-13.6-7.2-26.6-15.6-1.41-.8-3.9-2.5l-3.1-2.1A53.48,53.48,0,0,0,196.34,298.87Z"/><path d="M459.34,207.07q4.59-2,4.2,1.2-.6,4.6-6.8,11.2a12.84,12.84,0,0,1-4,3,304,304,0,0,1-37.4,13.6q6.2,16.41-1.3,31.2t-24.1,22.6a32.24,32.24,0,0,1-17.2,3.1,36.63,36.63,0,0,1-27.6-16.8,40.51,40.51,0,0,1-6.4-16.5q-2-12.6,5-25.2a96.14,96.14,0,0,1,18.2-23.2,2.13,2.13,0,0,1,2.2,0,24.85,24.85,0,0,1,14-10.4,16.12,16.12,0,0,1,8.6.8,26.76,26.76,0,0,1,8.4,5.1,63.48,63.48,0,0,1,7.4,7.7,91.69,91.69,0,0,1,6.4,9A222.59,222.59,0,0,0,459.34,207.07Zm-81.4,67.6a57.58,57.58,0,0,0,19.7-13.4q9.09-9.19,10.1-19.6a33.41,33.41,0,0,0-.2-3.6q-30.6,7-40.4-6a78.68,78.68,0,0,0-12.8,18,71.87,71.87,0,0,0-3.7,8.1,18.43,18.43,0,0,0-.9,8.1,9.44,9.44,0,0,0,4,7.2A25.16,25.16,0,0,0,377.94,274.67Zm22.8-50.8a14.67,14.67,0,0,0-7.2-5.3,15.94,15.94,0,0,0-8.8-.5A21.45,21.45,0,0,0,400.74,223.87Z"/><path d="M542.33,254.67a2.39,2.39,0,0,1,1.7,2.8,10.13,10.13,0,0,1-1.2,3.6,18.36,18.36,0,0,1-2.1,3q-2.79,3-5.9,6.2t-8.5,8a59.86,59.86,0,0,1-10.2,7.5,41.5,41.5,0,0,1-9.6,4,8.22,8.22,0,0,1-8.2-1.8q-3.39-3.09-4.6-10.3a53.45,53.45,0,0,1-.6-13.8,73.17,73.17,0,0,1-16.8,17.2,40.37,40.37,0,0,1-9.1,4.7,17.3,17.3,0,0,1-9.79.6,10.41,10.41,0,0,1-7.5-6.1q-2.81-5.19-2.91-13.6a80.15,80.15,0,0,1,1-14.6q1.11-6.19,3.6-16.5t2.9-12.7q1-4.2,8.8-9.6,7.41-5.19,8.2-1.8a3.1,3.1,0,0,1,0,1.6c-.4,2-1.06,5.07-2,9.2s-1.63,7.34-2.09,9.6-1,5.5-1.71,9.7a58,58,0,0,0-.9,9.8c.07,2.34.17,5.5.3,9.5q1,6.81,4.81,8.6t8.59-3.2a45,45,0,0,0,3.8-4.3,42.35,42.35,0,0,0,3.5-5.3q1.71-3,3-5.1a48.51,48.51,0,0,0,3-6q1.71-3.9,2.5-5.4c.54-1,1.4-3,2.61-6.1s1.93-4.93,2.19-5.6,1-2.66,2.31-6,2-5.13,2.09-5.4q1.2-3.39,9-8.2,8-5,7.6-.6a1.84,1.84,0,0,0-.19.8,282.44,282.44,0,0,0-8,36.6c-.14.67-.41,2-.81,4s-.66,3.67-.8,5-.26,2.9-.39,4.7a19.44,19.44,0,0,0,.19,4.9,12.09,12.09,0,0,0,4,7.4,4,4,0,0,0,2.9,1.1,9.07,9.07,0,0,0,2.8-.6,8.72,8.72,0,0,0,2.9-2.1l2.6-2.6q1-1,2.7-3c1.14-1.33,1.91-2.26,2.3-2.8Q538.34,252.67,542.33,254.67Z"/><path d="M588.73,253.67q1.6-3,6.6,3.2,5.8,7.41,4.4,11.2a.61.61,0,0,0-.2.4,57.93,57.93,0,0,1-27,24.5,23.48,23.48,0,0,1-16.5,1q-8.29-2.49-14.1-12.1a37,37,0,0,1-4.7-12.6,55.26,55.26,0,0,1-.9-13.4,78.39,78.39,0,0,1,2.3-14q1.9-7.59,3.9-13.4t5-12.6q1.2-2.79,6,3.4,6,7.41,4.6,11.6a110.78,110.78,0,0,0-10.2,45.8v.4l1.2.6a15.15,15.15,0,0,1,4.2.3,29.12,29.12,0,0,0,4.4.5,33.37,33.37,0,0,0,17.2-8.2A59.11,59.11,0,0,0,588.73,253.67Zm-38-49.2a3.31,3.31,0,0,1-3.2-.6,13.09,13.09,0,0,1-3.4-3.5,31.42,31.42,0,0,1-2.8-4.9,11.19,11.19,0,0,1-1.2-4.6,3.4,3.4,0,0,1,1-2.8q9.2-4.8,14.8-7.2,5.4-2.19,7.6-.6a18.06,18.06,0,0,1,6.4,7.7q2.4,5.1-.4,9.1c-.53.54-1.4.4-2.6-.4a1.13,1.13,0,0,1-.6.3,1.3,1.3,0,0,0-.6.3q-2.4,1-6.4,2.8Q554.93,202.27,550.73,204.47Z"/><path d="M685.93,206.07q4.61-1.8,4.2,1.4-.4,4.6-6.8,11a15.1,15.1,0,0,1-4.2,3.2,393,393,0,0,0-38.2,16.8,21.17,21.17,0,0,1,3.9,12.1,22.51,22.51,0,0,1-3.3,12.3,54,54,0,0,1-11.6,15.7,48.42,48.42,0,0,1-17.3,10.8,23.56,23.56,0,0,1-19.1-1.1q-5.6-2.79-6.9-7.3a13.06,13.06,0,0,1,1.2-9.6,56.55,56.55,0,0,1,5.6-9.2,74.68,74.68,0,0,1,6.7-7.7,139.41,139.41,0,0,1,14.4-12.2q-7.6-8.6-8.5-16.2t4.9-19.4a55.35,55.35,0,0,1,17.4-19.4,51.85,51.85,0,0,1,24.4-9q4.8-.6,1.6,5.4a25.2,25.2,0,0,1-9.4,10,5.48,5.48,0,0,1-2.8,1q-10.8,1-16.4,9.5t0,17.9a46.27,46.27,0,0,0,7.4,8A392,392,0,0,1,685.93,206.07Zm-70,67.4q6.39-.8,9.4-3.4a6.73,6.73,0,0,0,2.5-6.3,24.32,24.32,0,0,0-2.3-7.4,36.37,36.37,0,0,0-4.8-7.3q-15,8.81-16.6,15c-.94,3.34-.13,5.8,2.4,7.4A15.13,15.13,0,0,0,615.93,273.47Z"/><path d="M163.44,540.27q4.6-2,4.2,1.2-.6,4.6-7,11.2a14.45,14.45,0,0,1-3.8,3.2c-.67.27-1.33.57-2,.9s-1.37.67-2.1,1l-1.9.9q-4.2,14.8-8.7,27.2t-10.7,25.8a153.89,153.89,0,0,1-14.5,25,126.81,126.81,0,0,1-18.3,20.6,73.46,73.46,0,0,1-14.4,9.8,90.44,90.44,0,0,1-18.8,7.4,81,81,0,0,1-19.9,3,38.53,38.53,0,0,1-18.3-4.1,30.64,30.64,0,0,1-13.4-13.1,18.25,18.25,0,0,1-2.3-8.5,26.13,26.13,0,0,1,1.2-8.6,34.66,34.66,0,0,1,4.5-8.8,81.87,81.87,0,0,1,6.5-8.4,99.55,99.55,0,0,1,8.4-8.2q5.1-4.5,8.8-7.4t9.3-6.8q5.59-3.9,8.3-5.7t7.1-4.8a8.42,8.42,0,0,1,1-.6c.27-.13.57-.3.9-.5a4.72,4.72,0,0,0,.9-.7,675.19,675.19,0,0,1,70.4-39.4q.79-3.79,5.2-24.6,2-9.19,3.6-18.4-16.2,29.21-38.2,49.1T62,581.67a51.92,51.92,0,0,1-23.6-1.7A39.74,39.74,0,0,1,21,569a69.77,69.77,0,0,1-11.6-18,89.08,89.08,0,0,1-6.8-22.3,190.22,190.22,0,0,1-2.5-24.1,149.11,149.11,0,0,1,.8-23.4,143.22,143.22,0,0,1,3.7-20.1A248.72,248.72,0,0,1,23,413.67a216.53,216.53,0,0,1,29.8-43.9q18-20.7,38.8-32.5a56.61,56.61,0,0,1,16.8-6.5,42.44,42.44,0,0,1,15.5-.5,46.52,46.52,0,0,1,13.8,4.7,39,39,0,0,1,11.6,9.2,88.51,88.51,0,0,1,9,12.6,57.33,57.33,0,0,1,6.2,15.1,100.87,100.87,0,0,1,2.8,16.9,63.67,63.67,0,0,1-1.1,17.7q-.6,4.41-8.4,9.8-7.6,5-8.4,1.6a3.28,3.28,0,0,1,0-1.6,68.51,68.51,0,0,0-1.4-27.8,71.47,71.47,0,0,0-11.8-25.9,43.39,43.39,0,0,0-20.3-15.5q-12.1-4.4-26.7,3.6A94,94,0,0,0,65.64,369a142.63,142.63,0,0,0-19.5,25.6,246,246,0,0,0-14.5,28.2,205.24,205.24,0,0,0-10,28.5,151.93,151.93,0,0,0-5.2,29.1,143.73,143.73,0,0,0,.8,30.2,75.38,75.38,0,0,0,9.7,28.5,56.73,56.73,0,0,0,20.7,20.8q13.61,7.61,26.4,5.8t24.3-11a118.7,118.7,0,0,0,21.2-22.3,184.2,184.2,0,0,0,17.2-28.3,255.51,255.51,0,0,0,12.3-29,156.34,156.34,0,0,0,6.6-24.2q.8-4.2,8-9.6,7.8-5.79,9-2v1.6a619.86,619.86,0,0,1-18,103.6c.8-.4,2.2-1.06,4.2-2S162.37,540.81,163.44,540.27Zm-73.8,112.4a76.29,76.29,0,0,0,16.4-16.1,114.22,114.22,0,0,0,12.9-21.7,240.65,240.65,0,0,0,9.4-23.6q3.9-11.6,7.3-25.4a593.54,593.54,0,0,0-69.6,39c-.93.53-2.57,1.53-4.9,3s-4.33,2.77-6,3.9l-6.3,4.3a57.11,57.11,0,0,0-6.3,4.9c-1.67,1.53-3.47,3.27-5.4,5.2a26,26,0,0,0-4.4,5.6,28.65,28.65,0,0,0-2.4,5.7,10.84,10.84,0,0,0-.1,6,16,16,0,0,0,3,5.8q5.81,7.2,16.7,9.7a53.41,53.41,0,0,0,21.8.5Q82.65,657.47,89.64,652.67Z"/><path d="M291.84,472.07q4.59-2,4.2,1.2-.6,4.61-6.8,11.2a12.84,12.84,0,0,1-4,3,304,304,0,0,1-37.4,13.6q6.19,16.41-1.3,31.2t-24.1,22.6a32.24,32.24,0,0,1-17.2,3.1,36.63,36.63,0,0,1-27.6-16.8,40.65,40.65,0,0,1-6.4-16.5q-2-12.6,5-25.2a96.14,96.14,0,0,1,18.2-23.2,2.13,2.13,0,0,1,2.2,0,24.85,24.85,0,0,1,14-10.4,16.12,16.12,0,0,1,8.6.8,26.76,26.76,0,0,1,8.4,5.1,63.48,63.48,0,0,1,7.4,7.7,91.69,91.69,0,0,1,6.4,9A222.59,222.59,0,0,0,291.84,472.07Zm-81.4,67.6a57.58,57.58,0,0,0,19.7-13.4q9.09-9.19,10.1-19.6a33.41,33.41,0,0,0-.2-3.6q-30.6,7-40.4-6a78.68,78.68,0,0,0-12.8,18,71.87,71.87,0,0,0-3.7,8.1,18.43,18.43,0,0,0-.9,8.1,9.44,9.44,0,0,0,4,7.2A25.16,25.16,0,0,0,210.44,539.67Zm22.8-50.8a14.67,14.67,0,0,0-7.2-5.3,15.94,15.94,0,0,0-8.8-.5A21.45,21.45,0,0,0,233.24,488.87Z"/><path d="M372.64,513.87q1-2.79,6,3.2,6,7.6,4.8,11.6c-.27.54-.67,1.47-1.2,2.8q-1,2.81-1.7,4.5l-2.1,5.1q-1.41,3.4-2.5,5.6t-2.8,5.5a45.38,45.38,0,0,1-3.2,5.4c-1,1.4-2.14,2.94-3.4,4.6a18.16,18.16,0,0,1-3.7,3.8,24.24,24.24,0,0,1-3.9,2.3,7.9,7.9,0,0,1-4.2.8,13.26,13.26,0,0,1-4.3-1.2q-11.61-6.2-17-31.4a56.16,56.16,0,0,1-1.2-7q-17.4,42.81-35,35a27.49,27.49,0,0,1-13.5-12.4,38.34,38.34,0,0,1-4.5-18.4,99.91,99.91,0,0,1,1.8-19.2,95.39,95.39,0,0,1,5-17.2q2.19-5.19,3.9-9t4.2-8.4a47.13,47.13,0,0,1,4.8-7.4,30.58,30.58,0,0,1,5.4-5.1,11,11,0,0,1,6.2-2.4,15.3,15.3,0,0,1,6.9,1.7,26.15,26.15,0,0,1,7.8,6.2q3.19,3.4,4.2,10.2.6,3.81-1.2,3.6-1.2-.19-3.6-2.6-5.2-4-10.1-1t-9.8,12.1a147.54,147.54,0,0,0-7.8,16.6q-2.91,7.5-4.3,12.3a55.72,55.72,0,0,0-1.2,7.2,41.55,41.55,0,0,0,0,8.2,9.33,9.33,0,0,0,3.4,6.8q3,2.4,8.2,1.8,9-1.2,17.8-27.4,1.59-5.19,3.1-11t3.4-13.7q1.89-7.89,2.7-11.1,13.8-56,30.2-128,.39-2.4,5.2,3,6.39,7.41,5.4,11.8-.6,3-5.1,27.1t-10.6,51.4q-6.11,27.3-12.7,49.3a176.17,176.17,0,0,0,.2,34.6q1.39,13.8,3.8,16.2,2.6,3.21,7.6-2A107.76,107.76,0,0,0,372.64,513.87Z"/><path d="M425,524.27q2-4,9.8-8.2,7-4,6.8-.4a6.24,6.24,0,0,1-.8,2.6q-3,6-5.5,10.6a122.16,122.16,0,0,1-7.2,11.3A68.44,68.44,0,0,1,419,551a37.27,37.27,0,0,1-10.5,6.8,22.15,22.15,0,0,1-12.1,1.9,19.87,19.87,0,0,1-14.6-10.3,67.61,67.61,0,0,1-4-8.4,51.28,51.28,0,0,1-2.6-10c-.67-3.93-1.13-7.1-1.4-9.5s-.53-5.33-.8-8.8a361.77,361.77,0,0,1,1.9-69.2q4.31-35.79,13.3-78.8.79-4.2,8.6-9.6,7.6-5,8.4-1.6a6,6,0,0,1-.2,1.4,819.93,819.93,0,0,0-14,95.2q-1.2,15.21-1.7,23.6a214.91,214.91,0,0,0,.1,21.6,128.26,128.26,0,0,0,3,23.4,48.34,48.34,0,0,0,5.8,14.4q3.6,5.61,7.9,7t9.3-2.5Q420.42,533.67,425,524.27Z"/><path d="M501.23,508.47q6.6-6,10-3.8,3.19,2-.8,7.4l-2.6,3q-5.2,4.8-10.3,9t-12.7,9.7a82.57,82.57,0,0,1-14.8,8.7,77.82,77.82,0,0,1-14.8,4.9,25,25,0,0,1-14.4-.8,26.63,26.63,0,0,1-11.9-9.1,25.49,25.49,0,0,1-5.5-14.6,35,35,0,0,1,3-15.8,84.51,84.51,0,0,1,7.9-14.3,89.32,89.32,0,0,1,10.3-12.3,78.67,78.67,0,0,1,18.4-13.6q16.2-8.6,15.4,5.8-.8,11.81-11.2,25.7a94.11,94.11,0,0,1-23.4,22.5,24.18,24.18,0,0,0,5.2,5.8Q467.44,540.28,501.23,508.47Zm-54.8-15.6a29.47,29.47,0,0,0-5.6,17.6q3-1.8,9-7.8a68.43,68.43,0,0,0,10.1-12.7q4.1-6.69,1.5-8.9-1.8-1.4-5.2,1.2a35.63,35.63,0,0,0-5.8,5.5Q448,490.68,446.43,492.87Z"/><path d="M613.43,481.27q3.6,1.61,6.6,10,2.21,6.6-.6,6.2l-.8-.4q-9.6-4.59-16-5t-9.4,3a22,22,0,0,0-4.5,8.8,80.71,80.71,0,0,0-2.3,12.3q-.79,6.9-1.8,13.4a44.07,44.07,0,0,1-3.9,12.5,21.9,21.9,0,0,1-7.9,9.2,23.84,23.84,0,0,1-10,3.6,12.39,12.39,0,0,1-8.2-2,25.54,25.54,0,0,1-6.4-6.2,37,37,0,0,1-4.8-9.2q-4.2,10.2-11,14.8t-16.4.2a27.19,27.19,0,0,1-12.8-11.6,31.64,31.64,0,0,1-4-16.3,75.59,75.59,0,0,1,2.8-18.2,89.38,89.38,0,0,1,6.6-17.3,92.54,92.54,0,0,1,8.4-13.6q2.21-3,7.2,3.8,5.21,7,3.6,10.6a.57.57,0,0,1-.2.4,71.23,71.23,0,0,0-17,37.2q-.6,8.4,3.7,10t11.3-4q10.2-8.19,11.8-29.2a43.41,43.41,0,0,1,.4-5.8q.6-4.8,5.9,2t5.3,10.4a78.71,78.71,0,0,1-1.2,11.2q-.41,8,2,12.3t9.4,2.3a14.25,14.25,0,0,0,6.8-3.8,18.22,18.22,0,0,0,4.3-7.3,62.11,62.11,0,0,0,2.1-7.6q.6-3.09,1.2-8.3a12.5,12.5,0,0,0,.2-1.8q.2-.8.8-6.8t1.1-8.5a41.63,41.63,0,0,1,2.1-6.6,20.69,20.69,0,0,1,3.8-6.5,16.21,16.21,0,0,1,7.2-4.3,17.19,17.19,0,0,1,8.8.1,68.58,68.58,0,0,1,7.9,2.4Q608.64,478.87,613.43,481.27Z"/><path d="M708,471.07q4.61-1.8,4.2,1.4-.4,4.61-6.8,11a15.1,15.1,0,0,1-4.2,3.2,393,393,0,0,0-38.2,16.8,21.17,21.17,0,0,1,3.9,12.1,22.51,22.51,0,0,1-3.3,12.3,54,54,0,0,1-11.6,15.7,48.42,48.42,0,0,1-17.3,10.8,23.56,23.56,0,0,1-19.1-1.1q-5.6-2.79-6.9-7.3a13.1,13.1,0,0,1,1.2-9.6,56.55,56.55,0,0,1,5.6-9.2,74.68,74.68,0,0,1,6.7-7.7,139.41,139.41,0,0,1,14.4-12.2q-7.61-8.59-8.5-16.2t4.9-19.4a55.44,55.44,0,0,1,17.4-19.4,51.85,51.85,0,0,1,24.4-9q4.8-.6,1.6,5.4a25.2,25.2,0,0,1-9.4,10,5.48,5.48,0,0,1-2.8,1q-10.8,1-16.4,9.5t0,17.9a46.27,46.27,0,0,0,7.4,8A392.56,392.56,0,0,1,708,471.07Zm-70,67.4q6.4-.79,9.4-3.4a6.73,6.73,0,0,0,2.5-6.3,24.32,24.32,0,0,0-2.3-7.4,36.37,36.37,0,0,0-4.8-7.3q-15,8.8-16.6,15-1.4,5,2.4,7.4A15.15,15.15,0,0,0,638,538.47Z"/><path d="M768.83,533.07q1.2-4.2,9-9.4t8.2-1.6a5.62,5.62,0,0,1-.2,1.2,93.08,93.08,0,0,1-4.9,14.9,116.81,116.81,0,0,1-7.5,14.6,54.85,54.85,0,0,1-10.6,12.8,36,36,0,0,1-13.4,7.7,52.31,52.31,0,0,1-8.4,1.2,15.82,15.82,0,0,1-7.5-1.5,37.86,37.86,0,0,1-6.7-3.9,30.44,30.44,0,0,1-5.8-5.7q-2.81-3.5-5.1-6.9a61.79,61.79,0,0,1-4.4-7.7c-1.4-2.86-2.64-5.53-3.7-8s-2.07-5.1-3-7.9a114,114,0,0,0-5,11l-2.4,14.4q-.6,3.21-7.4,9.4-8.4,7.4-9.6,2a33,33,0,0,1,2.6-17.2l30.4-182q.8-4.39,8.6-9.8,7.59-5.19,8.4-1.6a2.55,2.55,0,0,1,0,1.4l-25.2,150.6q4.39-7.59,8-13.2t8.8-12.5a62.71,62.71,0,0,1,11.3-11.7,47.84,47.84,0,0,1,12.3-7.2q10-3.2,14.3-.3t3.8,9.5q-.51,6.6-5.3,13.6a100.92,100.92,0,0,1-36.6,30q8.4,20.81,20,30.8,15.79,13.6,24.6-8.6A63.84,63.84,0,0,0,768.83,533.07Zm-48-27.4c-.27.54-.94,1.6-2,3.2a65.37,65.37,0,0,0,19.4-12.2q13.8-15.6,7.6-14.8-5,.6-13.2,7.2c-.8.67-1.47,1.27-2,1.8A86.32,86.32,0,0,0,720.83,505.67Z"/><path d="M825.63,518.67q1.59-3,6.6,3.2,5.79,7.41,4.4,11.2a.57.57,0,0,0-.2.4,57.93,57.93,0,0,1-27,24.5,23.48,23.48,0,0,1-16.5,1q-8.31-2.49-14.1-12.1a36.84,36.84,0,0,1-4.7-12.6,54.27,54.27,0,0,1-.9-13.4,77.5,77.5,0,0,1,2.3-14q1.89-7.59,3.9-13.4t5-12.6q1.2-2.79,6,3.4,6,7.41,4.6,11.6a110.78,110.78,0,0,0-10.2,45.8v.4l1.2.6a15.15,15.15,0,0,1,4.2.3,29,29,0,0,0,4.4.5,33.41,33.41,0,0,0,17.2-8.2A59.11,59.11,0,0,0,825.63,518.67Zm-38-49.2a3.3,3.3,0,0,1-3.2-.6,12.94,12.94,0,0,1-3.4-3.5,31.42,31.42,0,0,1-2.8-4.9,11.19,11.19,0,0,1-1.2-4.6,3.4,3.4,0,0,1,1-2.8q9.19-4.8,14.8-7.2,5.4-2.19,7.6-.6a18.13,18.13,0,0,1,6.4,7.7q2.4,5.1-.4,9.1c-.54.54-1.4.4-2.6-.4a1.21,1.21,0,0,1-.6.3,1.3,1.3,0,0,0-.6.3c-1.6.67-3.74,1.6-6.4,2.8Q791.82,467.28,787.63,469.47Z"/>
    </symbol>   

    <symbol id="hand-stop" viewBox="5 5 90 90">
        <g><g><g><path d="M34.94,41.66c-1.1,0-2-0.9-2-2V17.99c0-3.87,3.08-7.02,6.86-7.02c3.78,0,6.86,3.15,6.86,7.02c0,1.1-0.9,2-2,2s-2-0.9-2-2     c0-1.67-1.28-3.02-2.86-3.02s-2.86,1.36-2.86,3.02v21.67C36.94,40.77,36.05,41.66,34.94,41.66z"/></g></g></g><g><g><g><path d="M54.4,46.56c-1.1,0-2-0.9-2-2v-31.9c0-1.67-1.28-3.03-2.86-3.03c-1.58,0-2.86,1.36-2.86,3.03v31.9c0,1.1-0.9,2-2,2     s-2-0.9-2-2v-31.9c0-3.87,3.08-7.03,6.86-7.03c3.78,0,6.86,3.15,6.86,7.03v31.9C56.4,45.66,55.5,46.56,54.4,46.56z"/></g></g></g><g><g><g><path d="M64.12,30.53c-1.1,0-2-0.9-2-2V18.07c0-1.67-1.29-3.03-2.86-3.03s-2.86,1.36-2.86,3.03c0,1.1-0.9,2-2,2s-2-0.9-2-2     c0-3.88,3.08-7.03,6.86-7.03s6.86,3.15,6.86,7.03v10.46C66.12,29.64,65.23,30.53,64.12,30.53z"/></g></g></g><g><g><g><path d="M51.26,94.36c-2.77,0-5.79-0.27-6.28-0.31c-0.07-0.01-0.13-0.02-0.2-0.03C32.83,91.7,24.15,81.19,24.15,69.03V39.05     c0-1.72,0.91-3.25,2.43-4.09c1.68-0.93,3.84-0.86,5.49,0.18l2,1.38c0.06,0.04,0.12,0.09,0.17,0.13c2.61,2.26,4.11,5.29,4.11,8.31     v11.73c3.29,1.68,12.17,7.04,12.17,16.15c0,1.1-0.9,2-2,2s-2-0.9-2-2c0-8.33-10.81-12.99-10.92-13.03     c-0.29-0.12-0.54-0.31-0.75-0.55c-0.31-0.36-0.5-0.85-0.5-1.33V44.96c0-1.83-0.96-3.72-2.65-5.22l-1.83-1.27     c-0.42-0.26-1.01-0.2-1.35-0.02c-0.32,0.18-0.36,0.39-0.36,0.59v29.98c0,10.21,7.27,19.05,17.3,21.04     c2.58,0.23,7.1,0.46,8.62,0.11c10.47-2.45,17.79-11.14,17.79-21.15v-41.3c0-1.67-1.28-3.03-2.86-3.03s-2.86,1.36-2.86,3.03v20.09     c0,1.1-0.9,2-2,2s-2-0.9-2-2V27.73c0-3.88,3.08-7.03,6.86-7.03s6.86,3.15,6.86,7.03v41.3c0,11.88-8.59,22.17-20.88,25.05     C54.06,94.29,52.69,94.36,51.26,94.36z"/></g></g></g>
    </symbol>

    <symbol id="close" viewBox="0 0 96 120">
        <path d="M87.66,19.66,59.31,48,87.66,76.34A8,8,0,0,1,76.34,87.66L48,59.31,19.66,87.66A8,8,0,0,1,8.34,76.34L36.69,48,8.34,19.66A8,8,0,0,1,19.66,8.34L48,36.69,76.34,8.34A8,8,0,0,1,87.66,19.66Z"/>
    </symbol>

    <symbol id="eye-close" viewBox="0 0 100 125">
        <g transform="translate(0,-952.36215)"><path d="M 88.75 8.96875 A 2.0002005 2.0002005 0 0 0 87.59375 9.5625 L 9.59375 87.5625 A 2.0002005 2.0002005 0 1 0 12.40625 90.40625 L 35.125 67.6875 C 39.821895 69.190393 44.819075 70 50 70 C 65.583668 70 79.496151 62.63905 88.5625 51.21875 A 2.0002005 2.0002005 0 0 0 88.5625 48.75 C 83.4009 42.248321 76.684282 37.09748 68.96875 33.84375 L 90.40625 12.40625 A 2.0002005 2.0002005 0 0 0 88.75 8.96875 z M 50 30 C 34.416316 30 20.503843 37.32981 11.4375 48.75 A 2.0002005 2.0002005 0 0 0 11.4375 51.21875 C 15.339408 56.13365 20.119264 60.2944 25.5625 63.4375 A 2.0019915 2.0019915 0 1 0 27.5625 59.96875 C 23.041968 57.35845 19.10667 53.904 15.71875 49.9375 C 24.06505 40.19075 36.28545 34 50 34 C 51.933041 34 53.850921 34.10603 55.71875 34.34375 A 2.0002005 2.0002005 0 1 0 56.21875 30.375 C 54.184075 30.11604 52.102179 30 50 30 z M 65.90625 36.90625 C 73.093781 39.641215 79.366407 44.208465 84.3125 50 C 75.965651 59.7663 63.730282 66 50 66 C 45.976128 66 42.082736 65.439224 38.375 64.4375 L 43.78125 59.03125 C 45.55594 60.263002 47.686328 61 50 61 C 56.051433 61 61 56.0515 61 50 C 61 47.690687 60.259018 45.556429 59.03125 43.78125 L 65.90625 36.90625 z M 47.25 39.375 A 2.0002005 2.0002005 0 0 0 46.71875 39.46875 C 43.138808 40.58411 40.355238 43.48778 39.375 47.125 A 2.0049313 2.0049313 0 0 0 43.25 48.15625 C 43.871562 45.84996 45.636626 44.01962 47.90625 43.3125 A 2.0002005 2.0002005 0 0 0 47.25 39.375 z M 56.125 46.6875 C 56.662615 47.679373 57 48.784058 57 50 C 57 53.8897 53.889693 57 50 57 C 48.781634 57 47.64593 56.70298 46.65625 56.15625 L 56.125 46.6875 z " transform="translate(0,952.36215)"/></g>
    </symbol>

    <symbol id="eye-open" viewBox="0 0 25 26">
        <g><g><path d="M22.386,12.183C22.195,11.95,17.647,6.5,12.5,6.5s-9.695,5.45-9.886,5.683c-0.152,0.185-0.152,0.45,0,0.635    C2.805,13.05,7.353,18.5,12.5,18.5s9.695-5.45,9.886-5.683C22.538,12.633,22.538,12.367,22.386,12.183z M12.5,17.5    c-3.998,0-7.793-3.853-8.834-5c1.041-1.147,4.837-5,8.834-5s7.793,3.853,8.834,5C20.293,13.647,16.498,17.5,12.5,17.5z"/><path d="M12.5,9.5c-1.654,0-3,1.346-3,3s1.346,3,3,3s3-1.346,3-3S14.154,9.5,12.5,9.5z M12.5,14.5c-1.103,0-2-0.897-2-2    s0.897-2,2-2s2,0.897,2,2S13.603,14.5,12.5,14.5z"/></g></g>
    </symbol>

    <symbol id="arrow-down" viewBox="0 0 100 125">
        <g><polygon points="79.3,42.1 76.4,39.3 51.3,65 25.5,39.9 22.7,42.7 51.3,70.7"/></g>
    </symbol>

    <symbol id="complete" viewBox="35 30 30 40">
        <g stroke="none" stroke-width="1"><g><g transform="translate(26.000000, 26.000000)"><path d="M17.9999878,32.4 L10.9999878,25.4 C10.2267891,24.6268014 8.97318644,24.6268014 8.19998779,25.4 L8.19998779,25.4 C7.42678914,26.1731986 7.42678914,27.4268014 8.19998779,28.2 L16.5857742,36.5857864 C17.3668228,37.366835 18.6331528,37.366835 19.4142014,36.5857864 L40.5999878,15.4 C41.3731864,14.6268014 41.3731864,13.3731986 40.5999878,12.6 L40.5999878,12.6 C39.8267891,11.8268014 38.5731864,11.8268014 37.7999878,12.6 L17.9999878,32.4 Z"/></g></g></g>
    </symbol>

    <symbol id="prev" viewBox="0 0 32 40">
        <g><path d="M22.29,30.71l-14-14a1,1,0,0,1,0-1.42l14-14a1,1,0,1,1,1.42,1.42L10.41,16l13.3,13.29a1,1,0,0,1-1.42,1.42Z"/></g>
    </symbol>

    <symbol id="next" viewBox="0 0 32 40">
        <g style="transform: rotate(.5turn) translate(-100%, -80%);"><path d="M22.29,30.71l-14-14a1,1,0,0,1,0-1.42l14-14a1,1,0,1,1,1.42,1.42L10.41,16l13.3,13.29a1,1,0,0,1-1.42,1.42Z"/></g>
    </symbol>

    <symbol id="link" viewBox="0 0 100 125">
        <g transform="translate(0,-952.36218)"><path style="text-indent:0;text-transform:none;direction:ltr;block-progression:tb;baseline-shift:baseline;enable-background:accumulate;" d="m 16.766198,1010.1406 c -7.0145574,7.0146 -7.0146562,18.4412 -2.11e-4,25.4556 7.01451,7.0145 18.441039,7.0143 25.455624,-2e-4 l 14.142131,-14.1421 c 7.014561,-7.0146 7.014726,-18.4411 2.08e-4,-25.45569 a 3.00025,3.0003 45 1 0 -4.242637,4.24269 c 4.737498,4.7375 4.737414,12.2329 -1.35e-4,16.9704 l -14.142105,14.1422 c -4.737573,4.7375 -12.23297,4.7376 -16.970442,10e-5 -4.737468,-4.7375 -4.737412,-12.2329 1.46e-4,-16.9704 l 13.43502,-13.4351 a 3.00025,3.0003 45 1 0 -4.242567,-4.24253 l -13.435032,13.43503 z m 26.870056,-26.87007 c -7.014571,7.01457 -7.014666,18.44117 -2.03e-4,25.45567 a 3.00025,3.0003 45 1 0 4.242644,-4.2427 c -4.73747,-4.73744 -4.737415,-12.23285 1.31e-4,-16.9704 l 14.142135,-14.14213 c 4.737545,-4.73755 12.232961,-4.73761 16.970421,-1.5e-4 4.737476,4.73748 4.737403,12.23288 -1.22e-4,16.97046 l -13.435062,13.43492 a 3.00025,3.0003 45 1 0 4.242588,4.2426 l 13.43502,-13.43498 c 7.01457,-7.01458 7.014716,-18.44114 2.16e-4,-25.45564 -7.014456,-7.01445 -18.441061,-7.01436 -25.455632,2.1e-4 l -14.142136,14.14214 z" fill-opacity="1" stroke="none" marker="none" visibility="visible" display="inline" overflow="visible"/></g>
    </symbol>

    <symbol id="search" viewBox="0 0 100 125">
        <g><path class="st4" d="M44,14.5c-15.8,0-28.7,12.9-28.7,28.7S28.2,71.9,44,71.9S72.7,59,72.7,43.2S59.8,14.5,44,14.5z"/><path d="M75.5,67.2c4.9-6.5,7.9-14.6,7.9-23.4C83.4,22.4,65.9,5,44.5,5S5.7,22.4,5.7,43.8s17.4,38.8,38.8,38.8   c8,0,15.5-2.5,21.7-6.7c0.1,0.1,0.1,0.1,0.2,0.2l17,17c1.2,1.2,2.9,1.9,4.5,1.9c1.6,0,3.3-0.6,4.5-1.9c2.5-2.5,2.5-6.5,0-9   L75.5,67.2z M44.5,69.9c-14.4,0-26.1-11.7-26.1-26.1s11.7-26.1,26.1-26.1s26.1,11.7,26.1,26.1S58.9,69.9,44.5,69.9z"/></g>
    </symbol>

    <symbol id="peoples" viewBox="0 0 589 364">
        <g><path class="fil0" d="M294.57 0c42.74,0 77.5,34.76 77.5,77.5 0,27.19 -14.03,51.12 -35.25,64.95 21.94,7.93 41.18,21.95 55.58,40.32 3.44,4.4 2.65,10.77 -1.75,14.21 -4.4,3.44 -10.77,2.65 -14.21,-1.75 -19.74,-25.19 -49.88,-39.83 -81.87,-39.83 -31.98,0 -62.11,14.65 -81.85,39.82 -3.44,4.4 -9.81,5.19 -14.21,1.75 -4.4,-3.44 -5.19,-9.81 -1.75,-14.21 14.43,-18.41 33.62,-32.35 55.58,-40.31 -21.22,-13.84 -35.26,-37.78 -35.26,-64.95 0,-42.73 34.76,-77.5 77.49,-77.5zm0 20.32c-31.63,0 -57.17,25.55 -57.17,57.18 0,31.62 25.55,57.17 57.17,57.17 31.62,0 57.18,-25.55 57.18,-57.17 0,-31.64 -25.54,-57.18 -57.18,-57.18z"/><path class="fil0" d="M119.08 55.78c42.74,0 77.5,34.76 77.5,77.5 0,26.16 -13.16,50.34 -34.88,64.69 36.23,13.24 64.53,42.85 76.02,79.78 1.66,5.34 -1.32,11.04 -6.66,12.7 -5.34,1.66 -11.04,-1.32 -12.7,-6.66 -13.52,-43.45 -53.79,-73.02 -99.27,-73.02 -45.49,0 -85.75,29.56 -99.27,73.02 -1.66,5.34 -7.36,8.32 -12.7,6.66 -5.34,-1.66 -8.32,-7.36 -6.66,-12.7 11.49,-36.91 39.79,-66.55 76.01,-79.78 -21.72,-14.38 -34.88,-38.5 -34.88,-64.69 0,-42.73 34.76,-77.5 77.49,-77.5zm0 20.32c-31.63,0 -57.17,25.55 -57.17,57.18 0,31.63 25.55,57.17 57.18,57.17 31.62,0 57.17,-25.55 57.17,-57.17 0,-31.63 -25.55,-57.18 -57.18,-57.18z"/><path class="fil0" d="M470.08 55.78c42.74,0 77.5,34.76 77.5,77.5 0,26.2 -13.15,50.3 -34.88,64.69 36.24,13.27 64.53,42.8 76.02,79.78 1.66,5.34 -1.32,11.04 -6.66,12.7 -5.34,1.66 -11.04,-1.32 -12.7,-6.66 -13.5,-43.46 -53.8,-73.02 -99.27,-73.02 -45.47,0 -85.78,29.57 -99.28,73.02 -1.66,5.34 -7.36,8.32 -12.7,6.66 -5.34,-1.66 -8.32,-7.36 -6.66,-12.7 11.47,-36.93 39.78,-66.52 75.99,-79.77 -21.71,-14.38 -34.85,-38.53 -34.85,-64.7 0,-42.74 34.74,-77.5 77.49,-77.5zm0 20.32c-31.59,0 -57.17,25.58 -57.17,57.18 0,31.62 25.56,57.17 57.17,57.17 31.63,0 57.18,-25.54 57.18,-57.17 0,-31.64 -25.54,-57.18 -57.18,-57.18z"/></g>
    </symbol>

    <symbol id="calendar" viewBox="0 0 25 25">
        <g><path d="M21.496 24h-18.992c-1.38 0-2.504-1.123-2.504-2.504v-16.991c0-1.381 1.124-2.505 2.505-2.505h18.99c1.381 0 2.505 1.124 2.505 2.505v16.991c0 1.381-1.123 2.504-2.504 2.504zm-18.991-20c-.278 0-.505.227-.505.505v16.991c0 .278.226.504.504.504h18.992c.278 0 .504-.226.504-.504v-16.991c0-.278-.227-.505-.505-.505h-18.99zM23 8h-22c-.552 0-1-.448-1-1s.448-1 1-1h22c.553 0 1 .448 1 1s-.447 1-1 1zM5 5c-.552 0-1-.448-1-1v-3c0-.552.448-1 1-1s1 .448 1 1v3c0 .552-.448 1-1 1zM19 5c-.553 0-1-.448-1-1v-3c0-.552.447-1 1-1s1 .448 1 1v3c0 .552-.447 1-1 1z"/><circle cx="6" cy="19" r="1"/><circle cx="6" cy="15" r="1"/><circle cx="9" cy="19" r="1"/><circle cx="9" cy="15" r="1"/><circle cx="9" cy="11" r="1"/><circle cx="15" cy="19" r="1"/><circle cx="15" cy="15" r="1"/><circle cx="15" cy="11" r="1"/><circle cx="18" cy="15" r="1"/><circle cx="18" cy="11" r="1"/><circle cx="12" cy="19" r="1"/><circle cx="12" cy="15" r="1"/><circle cx="12" cy="11" r="1"/></g>
    </symbol>

    <symbol id="money" viewBox="0 0 75 104">
        <g><path class="cls-1" d="M35.08,44.91a3.67,3.67,0,0,0,.41-1.19v-1a3.47,3.47,0,0,0-.13-.53l.13-.1v-.38c-4.23,3.35-10.72,4.56-16,4.56s-11.77-1.22-16-4.59v1.4h0c0,2.37,2.37,4.1,4.25,5.07,3.91,2,9.08,2.74,13.75,2.45a14.22,14.22,0,0,1,4.06-3,27.31,27.31,0,0,1,9.48-2.7ZM74.73,55.46a6.75,6.75,0,0,1,0,1.37v.27h0C74.29,60,72,62.47,68.61,64.26A27.73,27.73,0,0,1,58.49,67v4.36a6.74,6.74,0,0,1,0,.69c0,3.27-2.35,6.13-6.16,8.11A29.63,29.63,0,0,1,39,83.09a29.63,29.63,0,0,1-13.38-2.91c-3.5-1.82-5.77-4.39-6.11-7.33h0v-3A29.64,29.64,0,0,1,6.16,66.94C2.35,65,0,62.1,0,58.83V11C0,7.75,2.35,4.89,6.16,2.91A29.63,29.63,0,0,1,19.54,0,29.63,29.63,0,0,1,32.92,2.91c3.32,1.73,6.54,4.72,6.12,8.8v7a6.76,6.76,0,0,1,0,1.37V25.6a15.88,15.88,0,0,1,2.81-1.84,29.63,29.63,0,0,1,13.38-2.91,29.63,29.63,0,0,1,13.38,2.91c3.32,1.73,6.54,4.72,6.12,8.8v7a6.75,6.75,0,0,1,0,1.37v6.57a6.75,6.75,0,0,1,0,1.37v6.55Zm-16.24,8A23.88,23.88,0,0,0,67,61.12c1.7-.89,3.9-2.46,4.21-4.48v-1a3.44,3.44,0,0,0-.13-.53l.13-.1v-.37c-3.41,2.7-8.31,4-12.7,4.41v4.37Zm0-7.93A23.84,23.84,0,0,0,67,53.19c1.7-.89,3.9-2.46,4.21-4.48v-1a3.44,3.44,0,0,0-.13-.53l.13-.1v-.39c-3.78,3-9.34,4.28-14.26,4.52a7.35,7.35,0,0,1,1.6,4.28ZM71.19,40.76v-1a3.45,3.45,0,0,0-.13-.53l.13-.1v-.84c-4.23,3.35-10.72,4.56-16,4.56s-11.77-1.22-16-4.59v1.87h0c0,2.12,1.89,3.73,3.65,4.74a27.31,27.31,0,0,1,9.48,2.7l0,0c.92.08,1.86.12,2.83.12A26.06,26.06,0,0,0,67,45.24c1.7-.89,3.9-2.46,4.21-4.48Zm0-8.42v-.47h0c0-1.84-1.62-3.6-4.25-5a26.06,26.06,0,0,0-11.75-2.51A26.06,26.06,0,0,0,43.49,26.9c-5.66,2.95-5.66,7,0,9.94a26.06,26.06,0,0,0,11.75,2.51A26.06,26.06,0,0,0,67,36.84c2.4-1.25,4-2.83,4.21-4.5ZM19.61,54.25a6.73,6.73,0,0,0-.16,1.47h0v3.21A26.06,26.06,0,0,1,7.79,56.43c-1.88-1-4.29-2.7-4.25-5.07h0V49.67C7.69,53,14.05,54.26,19.61,54.25Zm-.16,8.22c-5.47,0-11.79-1.3-15.91-4.59v.84h0c0,2.37,2.37,4.1,4.25,5.07a26.05,26.05,0,0,0,11.66,2.51V62.48ZM55,72.25h0V71.6a3.42,3.42,0,0,0-.13-.53l.13-.1v-.39a16.15,16.15,0,0,1-2.58,1.65A29.63,29.63,0,0,1,39,75.15a29.63,29.63,0,0,1-13.38-2.91A16.1,16.1,0,0,1,23,70.56V72h0c0,2.37,2.37,4.1,4.25,5.07A26.06,26.06,0,0,0,39,79.55,26.06,26.06,0,0,0,50.73,77c1.79-.93,4.13-2.62,4.24-4.79Zm0-7.64v-1a3.44,3.44,0,0,0-.13-.53l.13-.1v-.84a16.14,16.14,0,0,1-2.58,1.65A29.63,29.63,0,0,1,39,66.75a29.63,29.63,0,0,1-13.38-2.91A16.11,16.11,0,0,1,23,62.15V64h0c0,2.37,2.37,4.1,4.25,5.07A26.06,26.06,0,0,0,39,71.6,26.06,26.06,0,0,0,50.73,69.1c1.7-.89,3.9-2.46,4.21-4.48Zm0-8.42c-.25,1.67-1.81,3.25-4.21,4.5A26.06,26.06,0,0,1,39,63.2a26.06,26.06,0,0,1-11.75-2.51c-2.62-1.37-4.25-3.13-4.25-5s1.62-3.6,4.25-5A26.06,26.06,0,0,1,39,48.24a26.06,26.06,0,0,1,11.75,2.51c2.62,1.37,4.25,3.13,4.25,5h0v.47Zm-51.4-21V33.8c4.23,3.38,10.74,4.59,16,4.59s11.73-1.21,16-4.56v.37l-.13.1a3.47,3.47,0,0,1,.13.53v1c-.31,2-2.51,3.6-4.21,4.48a26.06,26.06,0,0,1-11.75,2.51A26.06,26.06,0,0,1,7.79,40.27c-1.88-1-4.29-2.7-4.25-5.07Zm0-7.93h0c0,2.37,2.37,4.1,4.25,5.07a26.06,26.06,0,0,0,11.75,2.51,26.06,26.06,0,0,0,11.75-2.51c1.7-.89,3.9-2.46,4.21-4.48v-1a3.47,3.47,0,0,0-.13-.53l.13-.1v-.39c-4.23,3.35-10.72,4.56-16,4.56s-11.77-1.22-16-4.59v1.41Zm32-7.36V19a3.47,3.47,0,0,0-.13-.53l.13-.1v-.84C31.27,20.84,24.77,22,19.54,22s-11.77-1.22-16-4.59v1.87h0c0,2.37,2.37,4.1,4.25,5.07A26.06,26.06,0,0,0,19.54,26.9,26.06,26.06,0,0,0,31.28,24.4c1.7-.89,3.9-2.46,4.21-4.48Zm0-8.42V11h0c0-1.84-1.62-3.6-4.25-5A26.06,26.06,0,0,0,19.54,3.54,26.06,26.06,0,0,0,7.79,6.05C5.17,7.42,3.54,9.18,3.54,11s1.62,3.6,4.25,5A26.06,26.06,0,0,0,19.54,18.5,26.06,26.06,0,0,0,31.28,16C33.68,14.74,35.25,13.16,35.5,11.49Z"/></g>
    </symbol>

    <symbol id="rocket" viewBox="0 0 100 125">
        <path d="M34.39,31.72l-4.66-.24a15.77,15.77,0,0,0-11.94,4.6L10,43.82A3.8,3.8,0,0,0,11.28,50L22,54.47a70.44,70.44,0,0,0-2,7.4,3,3,0,0,0,.81,2.76l14.6,14.6a3,3,0,0,0,2.76.81,70,70,0,0,0,7.4-2L50,88.72A3.8,3.8,0,0,0,56.18,90l7.74-7.74a15.78,15.78,0,0,0,4.59-11.94l-.24-4.66C85.2,52.12,95.38,32.19,98.52,6.33a4.36,4.36,0,0,0-4.85-4.85C67.81,4.63,47.88,14.8,34.39,31.72Zm57.91-24c-3.31,23.79-13,42-28.91,54.11a3,3,0,0,0-1.18,2.54l.32,6.21A9.77,9.77,0,0,1,59.67,78l-5.41,5.41L50,73.06a3,3,0,0,0-3.84-1.65,66.13,66.13,0,0,1-7.71,2.41L26.18,61.56a66.31,66.31,0,0,1,2.41-7.71A3,3,0,0,0,26.94,50L16.62,45.74,22,40.33a9.79,9.79,0,0,1,7.4-2.85l6.21.32a3,3,0,0,0,2.54-1.18C50.3,20.74,68.5,11,92.29,7.71Zm-24.12,35a10.92,10.92,0,1,0-7.72-3.19A10.89,10.89,0,0,0,68.17,42.75Zm-3.48-14.4a4.92,4.92,0,1,1,0,7A4.91,4.91,0,0,1,64.69,28.35ZM5.19,98.56h.06c16.43-.29,24.5-9,27.21-12.78a3.49,3.49,0,0,0-3.68-5.42,16.46,16.46,0,0,1-6.06.41,4,4,0,0,1-3.49-3.49,16.45,16.45,0,0,1,.41-6.06,3.49,3.49,0,0,0-5.42-3.68C10.48,70.24,1.73,78.32,1.45,94.74a3.76,3.76,0,0,0,3.75,3.82Zm8-21.66q0,.55.1,1.09A10,10,0,0,0,22,86.72l1.09.1A28.77,28.77,0,0,1,7.56,92.44,28.77,28.77,0,0,1,13.17,76.9Z"/>
    </symbol>

    <symbol id="clock" viewBox="0 0 24 30">
        <g><path d="M21.7549,9.791a1,1,0,0,0-1.9512.4355c.0319.1443.0609.2906.0859.4374h0A8.1791,8.1791,0,0,1,20,12a8,8,0,1,1-8-8,7.915,7.915,0,0,1,4.06,1.105A1,1,0,0,0,17.0732,3.38,9.9862,9.9862,0,1,0,21.7549,9.791Z"/><path d="M18.7266,7.6665a1,1,0,0,0,1.6777-1.0879,10.111,10.111,0,0,0-.6865-.937,1,1,0,0,0-1.543,1.2715A8.2342,8.2342,0,0,1,18.7266,7.6665Z"/><path d="M11,7v5a1,1,0,0,0,.5527.8945l4,2a1,1,0,0,0,.8945-1.7891L13,11.3818V7A1,1,0,0,0,11,7Z"/></g>
    </symbol>

    <symbol id="support" viewBox="0 0 64 80">
        <path d="M53.11,57.84a14,14,0,0,1-10.82,5.71H41.16c-2.22,0-5.48-.27-8-2-5.67-3.85-5.49-13.13-5.49-13.13v-17a2.59,2.59,0,0,1,2.58-2.58h0a2.59,2.59,0,0,1,2.59,2.58V38.5h0a.63.63,0,0,0,.84.6.64.64,0,0,0,.42-.61h0l0-6.08V30.66l0-5.46a2.55,2.55,0,0,1,.24-1.09,2.77,2.77,0,0,1,.61-.86,3,3,0,0,1,2.13-.84,2.63,2.63,0,0,1,.7.12,2.87,2.87,0,0,1,2,2.75V38.51a.63.63,0,0,0,.69.63.66.66,0,0,0,.58-.66V20.9a3,3,0,0,1,0-.52A2.91,2.91,0,0,1,44,18a2.79,2.79,0,0,1,2,.83,3,3,0,0,1,.9,2.13v5.44a2.36,2.36,0,0,0,0,.25V38.51a.64.64,0,0,0,.85.6.62.62,0,0,0,.41-.6h0V26.38a2.3,2.3,0,0,1,.17-.65,2.51,2.51,0,0,1,2.26-1.56h.16a2.43,2.43,0,0,1,1.6.71,2.58,2.58,0,0,1,.77,1.83V44h0a.7.7,0,0,0,1.17.44l3.37-4.3a3.28,3.28,0,0,1,4.52-.53l.15.11a3.1,3.1,0,0,1,.58,4.38Z"/><path d="M24.17,48.48V41.64l-.65-.55c-10.64-9-17.07-14.4-17.07-22.21,0-7,4.93-12.43,11.21-12.43,3.71,0,6.8,1.8,9.18,5.34a3,3,0,0,0,5,0C34.19,8.25,37.28,6.45,41,6.45c6.29,0,11.22,5.46,11.22,12.43a12.91,12.91,0,0,1-.15,2,6,6,0,0,1,2.76,1.54,6.08,6.08,0,0,1,1.8,4.16,19.3,19.3,0,0,0,1.59-7.68C58.2,8.55,50.64.45,41,.45A16,16,0,0,0,29.32,5.38,16,16,0,0,0,17.65.45C8,.45.44,8.54.44,18.88c0,10.6,8.06,17.39,19.22,26.8l1.92,1.65,2.62,2.25C24.17,49.06,24.17,48.67,24.17,48.48Z"/>
    </symbol>

    <symbol id="infos" viewBox="0 0 100 100">
        <path d="M55.69659,19.46906a7.2893,7.2893,0,1,0-5.91284-8.44434A7.28924,7.28924,0,0,0,55.69659,19.46906Z"/><path d="M38.02271,36.30353c7.26025-.817,7.28021.1333,5.29272,11.40521L36.288,87.563c-1.672,9.48242,11.673,8.75134,23.0365,4.15735a2.03668,2.03668,0,0,0-.97046-3.92353c-7.26031.817-7.28027-.13336-5.29272-11.40515l7.02741-39.85443c1.672-9.4823-11.673-8.75122-23.03656-4.15723a2.03668,2.03668,0,0,0,.97052,3.92353Z"/>
    </symbol>

    <symbol id="flag-french" viewBox="0 0 512 512">
        <circle style="fill:#F0F0F0;" cx="256" cy="256" r="256"/><path style="fill:#D80027;" d="M512,256c0-110.071-69.472-203.906-166.957-240.077v480.155C442.528,459.906,512,366.071,512,256z"/><path style="fill:#0052B4;" d="M0,256c0,110.071,69.473,203.906,166.957,240.077V15.923C69.473,52.094,0,145.929,0,256z"/>
    </symbol>

    <symbol id="flag-english" viewBox="0 0 512 512">
        <circle style="fill:#F0F0F0;" cx="256" cy="256" r="256"/><g><path style="fill:#0052B4;" d="M52.92,100.142c-20.109,26.163-35.272,56.318-44.101,89.077h133.178L52.92,100.142z"/><path style="fill:#0052B4;" d="M503.181,189.219c-8.829-32.758-23.993-62.913-44.101-89.076l-89.075,89.076H503.181z"/><path style="fill:#0052B4;" d="M8.819,322.784c8.83,32.758,23.993,62.913,44.101,89.075l89.074-89.075L8.819,322.784L8.819,322.784z"/><path style="fill:#0052B4;" d="M411.858,52.921c-26.163-20.109-56.317-35.272-89.076-44.102v133.177L411.858,52.921z"/><path style="fill:#0052B4;" d="M100.142,459.079c26.163,20.109,56.318,35.272,89.076,44.102V370.005L100.142,459.079z"/><path style="fill:#0052B4;" d="M189.217,8.819c-32.758,8.83-62.913,23.993-89.075,44.101l89.075,89.075V8.819z"/><path style="fill:#0052B4;" d="M322.783,503.181c32.758-8.83,62.913-23.993,89.075-44.101l-89.075-89.075V503.181z"/><path style="fill:#0052B4;" d="M370.005,322.784l89.075,89.076c20.108-26.162,35.272-56.318,44.101-89.076H370.005z"/></g><g><path style="fill:#D80027;" d="M509.833,222.609h-220.44h-0.001V2.167C278.461,0.744,267.317,0,256,0c-11.319,0-22.461,0.744-33.391,2.167v220.44v0.001H2.167C0.744,233.539,0,244.683,0,256c0,11.319,0.744,22.461,2.167,33.391h220.44h0.001v220.442C233.539,511.256,244.681,512,256,512c11.317,0,22.461-0.743,33.391-2.167v-220.44v-0.001h220.442C511.256,278.461,512,267.319,512,256C512,244.683,511.256,233.539,509.833,222.609z"/><path style="fill:#D80027;" d="M322.783,322.784L322.783,322.784L437.019,437.02c5.254-5.252,10.266-10.743,15.048-16.435l-97.802-97.802h-31.482V322.784z"/><path style="fill:#D80027;" d="M189.217,322.784h-0.002L74.98,437.019c5.252,5.254,10.743,10.266,16.435,15.048l97.802-97.804V322.784z"/><path style="fill:#D80027;" d="M189.217,189.219v-0.002L74.981,74.98c-5.254,5.252-10.266,10.743-15.048,16.435l97.803,97.803H189.217z"/><path style="fill:#D80027;" d="M322.783,189.219L322.783,189.219L437.02,74.981c-5.252-5.254-10.743-10.266-16.435-15.047l-97.802,97.803V189.219z"/></g>
    </symbol>

</svg>